<?xml version="1.0" encoding="UTF-8"?><svg id="a" xmlns="http://www.w3.org/2000/svg" width="313.68" height="65.59" viewBox="0 0 313.68 65.59"><g><path d="M140.67,23.26V.51h16.07V64.78h-15.34l-.73-5.61c-2.27,4.24-7.63,6.43-14.57,6.43-12.12,0-21.59-9.81-21.59-24.38s9.47-24.38,21.59-24.38c6.94,0,12.3,2.4,14.57,6.43Zm0,17.95c0-6.68-4.5-10.8-10.07-10.8s-10.03,4.11-10.03,10.8,4.54,10.8,10.03,10.8,10.07-4.11,10.07-10.8Z" fill="#0d3349"/><path d="M213.67,45.54h-34.88c1.37,4.76,5.14,7.5,9.47,7.5s6.98-2.06,8.95-5.66l13.67,6.6c-4.58,7.5-13.28,11.61-22.62,11.61-13.97,0-26.09-8.74-26.09-24.38s12.12-24.38,26.09-24.38c15.6,0,26.91,10.24,25.41,28.71Zm-34.96-8.65h19.11c-1.2-4.76-4.63-7.5-9.55-7.5s-8.31,2.74-9.55,7.5Z" fill="#0d3349"/><path d="M268.56,17.65l-15.55,47.13h-23.56l-15.51-47.13h17.14l10.2,32.86,10.15-32.86h17.14Z" fill="#0d3349"/><path d="M296.44,31.83c-.26-2.14-2.1-4.2-5.06-4.2-3.3,0-5.18,1.24-5.18,3.38,0,2.31,2.96,3.3,6,4.03,14.91,3.6,21.85,6.43,21.47,15.17-.39,9.94-7.8,15.34-22.15,15.34s-22.02-5.44-22.41-15.12l16.02-1.16c.39,3.21,3.04,5.18,6.38,5.18s6-1.33,6-3.77c0-2.74-4.54-4.58-9.08-5.61-13.45-3.21-18.29-5.31-18.29-14.48s8.1-13.75,21.64-13.75c12.6,0,20.35,4.84,20.74,14.18l-16.07,.81Z" fill="#0d3349"/></g><g id="b"><path id="c" d="M60.49,.02c-.31,.03-1.46,.12-2.55,.21-1.88,.15-4.71,.49-5.17,.63-.12,.04-.62,.13-1.13,.21-3.69,.58-8.26,2.06-10.83,3.51-.47,.27-.97,.53-1.13,.59-.59,.23-4.44,2.92-5.87,4.09-10.54,8.64-16.14,22.14-13.79,33.29,.28,1.36,.32,1.38,1.28,.66,1.54-1.15,2.9-2.02,4.79-3.1,1.11-.63,5.9-2.96,6.09-2.96,.03,0,.39-.16,.81-.34,4.19-1.93,16.41-6.11,22.54-7.73,.23-.06,1.28-.35,2.33-.63,5.82-1.59,6.79-1.8,6.79-1.52,0,.06-.33,.23-.74,.37-2,.7-7.45,2.89-7.67,3.08-.07,.06-.21,.12-.31,.12-.09,0-.59,.19-1.09,.42s-.95,.42-1.01,.42c-.05,0-.57,.22-1.15,.5s-1.08,.5-1.12,.5-.61,.26-1.28,.57-1.25,.57-1.28,.57c-.6,0-14.23,7.13-18.53,9.69-.98,.59-1.81,1.06-1.84,1.06-.05,0-1.38,.83-5.65,3.54-4.76,3.01-12.72,8.64-17.62,12.49-.59,.46-1.28,1-1.55,1.21-4.25,3.3-4.79,3.91-2.38,2.64,5.42-2.84,11.47-5.67,15.82-7.4,2.66-1.06,5.47-1.85,7.37-2.08l.79-.09,1.97,1.97c5.15,5.15,10.69,7.76,18.85,8.89,1.95,.27,8.17,.23,9.65-.06,.43-.08,1.39-.26,2.12-.38,.74-.13,1.53-.28,1.77-.35s.83-.23,1.34-.36c9.4-2.44,17.43-8.26,24.55-17.79,.16-.21,.79-1.04,1.41-1.84,.62-.81,1.27-1.66,1.42-1.89,.17-.23,.56-.81,.89-1.28,3.71-5.23,8.96-13.84,12.34-20.23,.37-.7,.96-1.82,1.32-2.48s1.5-2.95,2.57-5.09c1.06-2.14,1.98-4,2.06-4.14,.3-.56,.18-.69-1.21-1.25-.16-.06-1.2-.41-2.33-.78-1.13-.37-2.4-.78-2.83-.93-1.85-.62-4.94-1.51-8.7-2.51-3.26-.86-4.15-1.09-5.38-1.36-.62-.14-1.29-.3-1.49-.37s-.73-.19-1.2-.28c-1.31-.25-1.89-.37-3.11-.63C76.88,.45,72.94,.09,66.22,.02c-2.84-.04-5.42-.03-5.73,0" fill="#3aac59" fill-rule="evenodd"/></g></svg>