<?xml version="1.0" encoding="UTF-8"?><svg id="a" xmlns="http://www.w3.org/2000/svg" width="288.99" height="66.1" viewBox="0 0 288.99 66.1"><path id="b" d="M60.95,.02c-.31,.03-1.47,.12-2.57,.21-1.9,.15-4.74,.49-5.21,.64-.12,.04-.63,.13-1.14,.21-3.72,.58-8.32,2.08-10.91,3.54-.47,.27-.98,.54-1.14,.59-.59,.23-4.48,2.94-5.92,4.12-10.62,8.71-16.26,22.31-13.9,33.55,.29,1.37,.32,1.39,1.29,.67,1.55-1.16,2.92-2.03,4.83-3.13,1.12-.64,5.95-2.99,6.14-2.99,.03,0,.4-.16,.81-.34,4.23-1.94,16.53-6.16,22.71-7.79,.23-.06,1.29-.35,2.35-.64,5.86-1.6,6.84-1.81,6.84-1.53,0,.06-.33,.23-.75,.37-2.02,.7-7.51,2.91-7.73,3.11-.07,.06-.21,.12-.31,.12-.09,0-.59,.19-1.1,.43s-.96,.43-1.02,.43c-.05,0-.57,.22-1.16,.5s-1.09,.5-1.13,.5-.61,.26-1.29,.57-1.26,.57-1.29,.57c-.6,0-14.34,7.18-18.68,9.76-.99,.59-1.82,1.07-1.85,1.07-.05,0-1.39,.84-5.7,3.57-4.8,3.03-12.82,8.71-17.75,12.58-.59,.46-1.29,1.01-1.56,1.22-4.28,3.33-4.83,3.94-2.39,2.66,5.46-2.86,11.56-5.71,15.94-7.45,2.68-1.07,5.51-1.87,7.42-2.1l.8-.09,1.99,1.99c5.19,5.19,10.77,7.82,18.99,8.96,1.96,.27,8.23,.23,9.73-.06,.43-.08,1.4-.26,2.14-.38,.75-.13,1.54-.29,1.78-.35s.84-.23,1.35-.36c9.47-2.46,17.57-8.32,24.74-17.93,.16-.21,.8-1.04,1.42-1.86,.63-.81,1.28-1.67,1.43-1.9,.17-.23,.56-.81,.9-1.29,3.74-5.27,9.02-13.94,12.44-20.39,.37-.7,.97-1.83,1.33-2.5s1.52-2.98,2.59-5.13c1.06-2.15,2-4.03,2.07-4.17,.31-.56,.18-.69-1.22-1.26-.16-.06-1.21-.42-2.35-.79-1.14-.37-2.42-.79-2.85-.93-1.87-.63-4.97-1.53-8.77-2.53-3.28-.87-4.18-1.1-5.42-1.37-.63-.14-1.3-.31-1.5-.37s-.74-.19-1.21-.28c-1.32-.25-1.9-.37-3.13-.64C77.47,.45,73.5,.09,66.73,.02c-2.87-.04-5.46-.03-5.78,0" fill="#39ac58" fill-rule="evenodd"/><g><path d="M176.1,.88V65.22h-22.2l-19.16-35.84v35.84h-18.38V.88h22.2l19.16,35.84V.88h18.38Z" fill="#0d3349"/><path d="M231.79,.88V15.4h-27.99v10.66h25.18v14.52h-25.14v24.63h-18.38V.88h46.32Z" fill="#0d3349"/><path d="M288.99,15.4h-15.62v49.81h-18.38V15.4h-15.62V.88h49.63V15.4Z" fill="#0d3349"/></g></svg>